<svg xmlns="http://www.w3.org/2000/svg" viewBox="0 0 60 60">
  <!-- SVG created with Arrow, by QuiverAI (https://quiver.ai) -->
  <style type="text/css">.cls-0 {fill:#D8D8D8;}
  .cls-1 {fill:#252B34;}</style>
  <path class="cls-0" d="m27 12.9v-0.6c-3.5-0.5-10.2 1.7-14 7.7-2.4 3.7-3.4 7.3-3.3 11 0.3 9.7 5.9 15 9.4 15.9s7.4 2.4 10.6 1.1c-4.2-1.7-13.1-6-13.2-18-0.1-7.4 5.3-14.4 10.5-17.1z"/>
  <path class="cls-1" d="m29.6 54.1c-1.5 0.2-4.6-0.5-5.8-1-6.6-2.5-14.8-9.1-15.6-21.1-0.8-10.4 6.7-22.2 18.3-24.5 2-0.4 5-0.5 6.9-0.3 7.6 0.7 14.1 5.6 17.6 12 1.6 3.1 3.1 8.1 2.2 13.1 0.1 3.1 4.6 3.3 4.7-0.3 0.2-4 0.5-7.3-1.4-13.1-2.5-6.6-9.5-14.7-18.1-16.7-1.5-0.5-4.4-1.1-7.7-1.2-3.2 0-6.8 0.6-9 1.3-13.1 4.2-19.4 15.3-19.6 27.1l0.1 4.3c1.4 11.7 8.8 22.8 23.1 25.2l4 0.3c3-0.1 3.3-4.5 0.3-5.1zm26.1-10.4c0.7-1.1 0.8-2.2-0.2-3.2-1.1-0.8-1.9-0.5-2.7 0.1l-4.7 3.6c-1 0.9-1.7 1-2.8-0.1l-4.1-3.4c-0.8-0.7-2-0.9-3 0.2-0.7 0.7-0.5 2 0.2 2.9 1 1.4 4 5 3.9 5.8 0.1 0.7-3.7 4.9-4.4 5.9-0.2 0.4-0.3 1-0.3 1.5 0.3 1.4 1.6 1.9 2.6 1.7l0.8-0.3 4.4-3.2c1.6-1.1 1.8-1.3 3.2-0.3l4.3 3.4c1.3 1 2.9 0.1 3.2-1.3 0-0.5-0.2-1.2-0.6-1.6-0.9-1.1-3.7-4.9-3.9-5.7-0.2-0.7 2.4-3.3 4.1-6z"/>
</svg>
